<?xml version="1.0" standalone="no"?>
<!DOCTYPE svg PUBLIC "-//W3C//DTD SVG 20010904//EN"
 "http://www.w3.org/TR/2001/REC-SVG-20010904/DTD/svg10.dtd">
<svg version="1.0" xmlns="http://www.w3.org/2000/svg"
 width="577.000000pt" height="433.000000pt" viewBox="0 0 577.000000 433.000000"
 preserveAspectRatio="xMidYMid meet">

<g transform="translate(0.000000,433.000000) scale(0.100000,-0.100000)"
fill="#000000" stroke="none">
<path d="M2735 4080 c-38 -10 -88 -19 -110 -19 -22 -1 -56 -5 -75 -11 -19 -5
-51 -11 -70 -13 -19 -3 -62 -9 -95 -15 -33 -6 -116 -19 -185 -28 -104 -14
-138 -24 -204 -56 -44 -21 -86 -38 -94 -38 -8 0 -26 -8 -40 -18 -15 -10 -53
-31 -86 -46 -32 -16 -80 -48 -107 -72 -28 -24 -54 -44 -60 -44 -6 0 -8 -4 -4
-9 3 -5 -3 -12 -14 -16 -10 -3 -21 -16 -24 -28 -13 -50 -74 -209 -114 -295
-13 -29 -13 -44 -3 -98 7 -35 17 -64 22 -64 6 0 8 -12 5 -30 -4 -19 -2 -32 7
-37 7 -4 13 -19 13 -33 1 -56 3 -62 19 -56 15 6 16 1 11 -36 -4 -24 -9 -58
-13 -77 -6 -27 -4 -32 6 -26 7 4 2 -7 -11 -24 -19 -27 -24 -44 -22 -89 2 -65
23 -131 31 -97 9 40 35 61 75 60 20 -1 40 -5 43 -8 9 -8 -5 -77 -15 -77 -15 0
-6 -116 12 -143 10 -16 13 -27 6 -29 -7 -2 0 -28 18 -66 29 -59 29 -62 10 -68
-29 -9 -1 -25 40 -22 28 2 35 -4 80 -69 27 -40 82 -108 123 -152 44 -48 75
-90 75 -103 1 -13 5 -35 8 -50 4 -15 3 -30 -3 -33 -5 -3 -12 12 -16 35 -4 22
-10 40 -15 40 -13 0 -46 -70 -54 -113 -7 -35 -39 -76 -94 -122 -28 -23 -24
-15 31 67 21 31 38 59 38 62 0 4 -136 -31 -263 -68 -31 -10 -61 -25 -67 -35
-11 -22 -4 -32 18 -24 14 4 15 3 2 -6 -8 -5 -11 -13 -7 -17 4 -5 40 9 79 29
39 21 73 35 75 33 3 -2 -16 -24 -42 -49 -25 -25 -47 -55 -48 -67 -1 -14 -13
-26 -36 -36 -20 -8 -39 -20 -43 -27 -6 -9 -11 -8 -19 3 -9 12 -10 11 -4 -5 5
-16 4 -18 -6 -7 -20 19 -34 14 -16 -6 16 -17 16 -20 -6 -39 -24 -23 -131 -58
-147 -48 -5 3 -10 1 -10 -5 0 -6 -10 -10 -22 -9 -13 2 -27 1 -33 -3 -34 -21
-211 -59 -267 -57 -35 2 -72 0 -83 -3 -11 -4 -42 -9 -68 -13 l-48 -6 16 31 c9
18 14 34 12 36 -7 7 -96 -15 -129 -32 -17 -9 -27 -11 -24 -5 12 18 -9 13 -91
-23 -43 -19 -95 -38 -117 -42 -21 -3 -52 -19 -70 -34 -41 -36 -57 -40 -78 -22
-12 10 -18 11 -18 4 0 -7 -7 -12 -16 -12 -26 0 -144 -61 -160 -84 l-16 -21 5
23 c3 12 4 22 4 22 -17 0 -115 -46 -125 -58 -19 -25 -15 -58 7 -58 11 0 17 4
14 9 -3 5 5 6 18 2 19 -5 21 -4 9 5 -13 9 -12 11 5 8 11 -2 25 3 32 12 6 8 15
12 19 8 4 -4 1 -14 -5 -22 -8 -10 -9 -16 -1 -21 14 -9 32 4 24 17 -5 7 -1 9 9
5 17 -6 84 18 290 108 80 34 112 44 120 36 6 -6 16 -11 21 -11 6 0 4 4 -4 10
-8 5 -12 11 -9 14 12 12 99 34 99 24 0 -5 4 -7 9 -4 5 4 11 3 14 -1 2 -5 2 -3
1 4 -4 16 5 21 46 28 18 3 42 11 53 17 22 11 151 17 161 7 13 -12 11 -84 -1
-85 -7 -1 -17 -2 -23 -3 -14 -2 -12 -33 5 -74 17 -41 21 -71 6 -48 -10 15 -11
15 -143 -20 -60 -16 -75 -24 -71 -36 5 -13 3 -13 -16 -2 -12 8 -21 24 -21 39
0 16 -16 42 -45 73 -67 70 -74 62 -21 -25 55 -91 53 -118 -9 -118 -32 0 -37
-11 -19 -45 8 -15 12 -30 10 -33 -3 -2 -13 12 -22 32 -20 40 -46 50 -37 14 3
-13 12 -30 19 -39 8 -9 28 -42 45 -75 95 -184 156 -294 169 -304 4 -3 13 -16
20 -29 7 -14 15 -19 19 -13 3 6 19 14 34 17 21 6 26 4 22 -6 -2 -8 6 -44 18
-81 13 -37 20 -69 16 -70 -5 -2 1 -23 12 -47 10 -24 17 -46 15 -48 -2 -2 -21
-1 -42 3 -22 4 -34 9 -28 11 6 2 -1 17 -17 34 -16 17 -29 36 -29 41 0 6 -22
31 -49 57 -27 25 -51 55 -53 66 -2 11 -12 25 -23 30 -11 6 -20 17 -20 25 0 8
-9 16 -20 18 -11 2 -54 41 -95 87 -41 46 -81 84 -87 84 -7 1 -13 8 -13 16 0 9
-7 18 -15 21 -8 4 -15 12 -15 20 0 8 -8 14 -17 14 -9 0 -25 7 -35 17 -10 9
-20 14 -23 11 -3 -2 39 -49 93 -104 116 -117 203 -224 195 -237 -4 -6 -1 -7 7
-2 18 11 31 -16 17 -35 -10 -13 -10 -13 4 -3 12 10 18 10 27 1 7 -7 12 -15 12
-19 0 -5 16 -25 35 -46 l35 -38 -23 -17 c-12 -10 -27 -18 -33 -18 -16 0 -45
35 -37 45 5 4 3 6 -2 2 -6 -3 -39 33 -75 81 -61 80 -308 337 -430 447 -106 96
-170 147 -170 137 0 -6 6 -13 13 -15 9 -4 9 -6 0 -6 -18 -1 -19 -271 -1 -271
9 0 9 -3 0 -12 -17 -17 3 -45 44 -58 31 -11 37 -10 49 7 8 10 15 21 15 26 0
13 18 7 24 -9 3 -8 2 -12 -4 -9 -6 3 -10 1 -10 -4 0 -6 6 -11 14 -11 8 0 16
-6 19 -13 5 -14 -6 -39 -17 -38 -19 3 -26 0 -26 -11 0 -6 3 -9 6 -6 14 15 42
-31 38 -62 -5 -41 -10 -46 -29 -30 -9 7 -15 8 -15 2 0 -6 6 -13 13 -15 20 -9
-14 -28 -39 -22 -18 4 -21 0 -21 -23 0 -15 2 -21 4 -14 5 14 53 17 53 2 0 -5
7 -10 15 -10 7 0 18 -8 24 -18 8 -14 13 -15 30 -4 18 10 21 10 21 -5 0 -10 -6
-25 -13 -34 -11 -14 -20 -15 -65 -6 -28 6 -52 15 -52 20 0 4 -5 5 -12 1 -6 -4
-8 -3 -5 3 4 5 -3 20 -14 31 -11 12 -16 22 -12 22 4 0 2 5 -5 12 -7 7 -12 23
-12 38 -1 24 -1 24 -15 6 -20 -26 -22 -526 -3 -526 9 0 9 -3 0 -12 -7 -7 -12
-27 -12 -45 l0 -33 108 1 c59 0 102 3 96 5 -13 6 -6 54 8 54 5 0 12 -10 15
-21 6 -21 7 -21 19 -4 11 15 16 16 29 5 10 -8 15 -9 15 -1 0 6 9 11 20 11 11
0 20 5 20 11 0 8 4 8 14 0 10 -8 16 -9 21 -1 5 9 -15 15 -38 11 -18 -3 -47 21
-45 37 6 34 80 39 311 20 109 -9 147 -15 147 -25 0 -10 -13 -12 -48 -10 -34 3
-49 0 -49 -9 0 -7 14 -12 33 -12 18 0 43 -8 56 -17 15 -11 17 -15 6 -12 -10 4
-18 2 -18 -4 0 -6 -6 -9 -13 -6 -8 3 -20 1 -28 -4 -11 -7 -11 -9 -1 -9 7 0 10
-5 7 -10 -4 -7 259 -10 784 -10 618 0 791 3 794 13 4 9 6 9 6 0 1 -10 60 -13
261 -13 l260 0 1 53 c0 28 0 84 1 122 1 79 7 91 50 100 24 6 35 2 56 -18 15
-13 46 -37 69 -52 41 -27 42 -27 75 -10 58 31 128 65 132 65 2 0 3 -57 2 -127
l-1 -128 38 -3 c22 -2 52 1 68 7 16 5 29 6 29 1 0 -5 9 -8 20 -7 25 2 26 13 3
26 -15 9 -16 12 -4 20 12 8 12 12 -2 25 -8 9 -17 12 -19 6 -2 -5 -18 -2 -35 7
-33 16 -44 33 -20 33 6 0 -1 9 -18 20 -28 19 -29 20 -7 20 13 0 20 4 17 10 -3
6 -1 10 6 10 8 0 8 4 -2 16 -8 9 -9 18 -3 22 5 4 15 19 21 34 12 26 11 28 -8
28 -17 0 -19 3 -10 14 7 9 27 12 61 9 30 -2 50 0 50 7 0 5 -8 10 -17 10 -15 0
-16 2 -3 10 11 7 7 10 -18 10 -20 0 -31 -4 -27 -10 3 -5 1 -10 -4 -10 -6 0
-11 5 -11 11 0 5 -4 7 -10 4 -5 -3 -9 2 -8 12 3 37 -2 53 -17 53 -8 0 -15 6
-15 13 -1 7 -6 5 -14 -6 -13 -16 -14 -16 -18 5 -2 13 -5 97 -6 187 -3 161 -2
163 22 187 18 19 32 24 59 21 29 -3 34 -1 30 12 -4 14 -3 14 6 1 6 -8 8 -22 6
-31 -9 -27 18 -51 48 -44 15 4 24 11 21 16 -3 5 2 9 10 9 10 0 16 9 16 23 0
23 17 47 32 47 4 0 8 -15 8 -32 0 -38 19 -78 20 -43 1 19 1 19 14 3 8 -11 33
-21 61 -25 44 -6 46 -7 25 -18 -21 -11 -20 -12 9 -12 19 0 31 5 31 14 0 10 31
13 144 13 140 0 144 1 150 23 l7 22 9 -23 c7 -17 17 -22 47 -22 28 0 34 -3 23
-10 -8 -5 -11 -10 -6 -10 5 0 17 7 26 15 13 11 50 15 173 16 86 0 161 -2 166
-5 5 -4 16 0 23 7 11 12 15 12 26 -2 13 -16 13 -22 0 327 l-3 72 70 0 c52 -1
66 -3 53 -11 -12 -6 -18 -22 -18 -44 0 -19 8 -44 18 -55 9 -11 17 -24 17 -28
0 -4 13 -35 28 -70 16 -34 29 -71 30 -82 1 -11 4 -20 8 -20 4 0 15 -26 24 -58
15 -50 19 -107 14 -207 -1 -39 11 -76 23 -69 5 3 6 19 3 34 -4 18 0 42 10 64
9 19 14 39 11 45 -4 5 -2 12 4 16 11 7 9 85 -2 85 -5 0 -8 5 -8 11 0 5 5 7 10
4 6 -3 10 -1 10 4 0 6 -6 11 -12 11 -7 0 -5 5 5 11 22 13 22 39 0 39 -14 0
-15 2 -5 9 16 10 8 45 -24 109 -13 26 -24 55 -24 65 0 9 -7 17 -15 17 -8 0
-15 5 -15 10 0 6 7 10 15 10 8 0 15 5 15 11 0 6 -6 9 -12 6 -9 -3 -14 8 -15
36 -1 22 -8 44 -15 48 -7 5 -13 14 -13 21 -2 26 -18 72 -33 89 -9 10 -24 51
-34 91 -18 70 -85 215 -114 249 -8 8 -14 23 -14 32 0 9 -5 17 -11 17 -6 0 -9
6 -6 14 3 7 0 19 -6 26 -12 12 21 10 88 -6 16 -4 20 0 21 25 1 35 -3 37 -141
85 -55 20 -152 54 -215 76 -63 23 -128 43 -143 45 -18 2 -49 24 -84 59 l-56
55 34 28 c109 89 167 175 189 282 3 16 16 28 40 37 19 7 29 13 23 13 -9 1 -13
18 -13 51 0 43 4 54 31 77 17 16 35 36 41 46 8 17 7 17 -12 7 -21 -11 -22 -10
-17 24 3 20 -1 47 -9 62 -20 37 -18 128 2 145 13 10 17 10 24 -2 7 -10 12 -11
21 -2 9 9 17 5 35 -15 30 -34 41 -20 40 46 l-1 47 -43 -2 c-38 -2 -42 0 -31
13 11 13 10 18 -4 25 -16 9 -15 12 4 39 12 15 19 33 15 38 -12 20 35 219 55
232 12 8 39 93 39 125 0 17 -7 48 -14 70 -12 34 -12 40 0 43 24 6 15 30 -21
58 -20 15 -33 29 -30 32 8 9 -51 40 -89 48 -29 5 -36 11 -36 30 0 12 -5 26
-10 29 -7 5 -8 11 -1 19 6 8 1 25 -17 53 -29 45 -89 78 -187 103 -27 8 -78 31
-113 51 -81 49 -166 86 -217 94 -22 3 -130 29 -240 56 -155 39 -229 52 -330
59 -165 12 -176 11 -260 -10z m665 -91 c17 -13 18 -17 5 -10 -33 17 -51 31
-40 31 6 0 21 -10 35 -21z m-61 -588 c30 -6 59 -17 63 -24 4 -6 8 -8 8 -3 0 5
7 3 16 -4 8 -8 29 -15 47 -17 17 -2 41 -10 54 -18 12 -8 34 -16 48 -17 14 -1
25 -8 25 -15 0 -6 9 -15 20 -18 20 -6 46 -43 42 -58 -1 -4 5 -10 13 -13 8 -4
15 -12 15 -19 0 -7 13 -18 30 -23 16 -6 41 -22 54 -36 13 -15 30 -26 38 -26 8
0 18 -4 24 -9 5 -5 26 -14 46 -20 55 -18 108 -84 145 -182 72 -191 75 -226 29
-390 -9 -31 -17 -69 -18 -84 -2 -15 -8 -30 -15 -32 -7 -3 -10 -9 -7 -15 8 -13
-27 -38 -46 -33 -8 3 -22 0 -30 -5 -8 -5 -11 -10 -7 -10 4 0 2 -6 -5 -14 -9
-10 -15 -11 -21 -2 -5 8 -11 6 -18 -6 -11 -19 -39 -25 -39 -8 0 5 -7 7 -15 4
-8 -4 -15 -12 -15 -20 0 -8 -3 -14 -7 -14 -10 0 -47 -62 -45 -73 2 -5 -2 -6
-7 -3 -5 3 -14 -1 -21 -10 -10 -11 -10 -18 -2 -26 18 -18 14 -30 -8 -23 -16 5
-20 2 -20 -15 0 -13 -8 -24 -20 -27 -11 -3 -17 -9 -14 -15 8 -12 -16 -39 -28
-32 -5 4 -22 -2 -36 -13 -38 -27 -70 -34 -86 -17 -12 11 -15 11 -20 -1 -3 -8
-14 -15 -25 -15 -11 0 -26 -7 -35 -15 -17 -17 -46 -20 -46 -5 0 14 -16 12 -33
-5 -8 -8 -18 -11 -21 -7 -4 3 -11 0 -16 -8 -8 -12 -10 -10 -10 8 0 21 -1 22
-16 8 -11 -12 -20 -13 -34 -6 -12 6 -21 6 -25 1 -3 -6 -23 -8 -44 -5 -33 4
-40 1 -46 -18 -6 -20 -8 -21 -12 -5 -3 12 -11 16 -24 12 -14 -5 -19 -2 -19 12
0 14 -2 15 -9 5 -4 -8 -11 -13 -15 -13 -19 3 -25 -1 -28 -16 -3 -14 -5 -15
-18 -2 -9 8 -34 14 -60 13 -25 0 -51 4 -59 10 -12 9 -13 7 -8 -8 6 -16 5 -17
-8 -6 -8 7 -15 9 -15 5 0 -5 -8 0 -19 9 -16 15 -20 15 -33 2 -12 -11 -18 -12
-28 -3 -10 10 -11 9 -5 -3 7 -13 6 -13 -7 -2 -8 7 -22 10 -31 6 -8 -3 -18 -1
-22 5 -3 6 -11 11 -16 11 -6 0 -7 -4 -4 -10 3 -5 3 -10 0 -10 -11 0 -50 23
-56 33 -4 5 -13 6 -20 1 -21 -13 -38 -13 -45 -2 -3 5 -14 2 -25 -8 -19 -17
-20 -17 -13 0 6 16 3 18 -29 14 -21 -2 -37 0 -37 5 0 4 -8 7 -17 6 -10 -2 -40
2 -68 9 -27 6 -69 14 -92 16 -47 5 -113 33 -113 48 0 5 -4 7 -9 4 -15 -10 -38
38 -36 74 2 23 -4 41 -16 53 -11 10 -19 22 -19 28 0 6 -8 6 -21 -1 -11 -7 -23
-9 -27 -6 -3 3 0 6 6 6 7 0 12 5 12 11 0 5 -4 7 -10 4 -5 -3 -10 -1 -10 5 0 6
-4 8 -10 5 -6 -3 -10 4 -11 17 0 22 -1 22 -8 3 -5 -11 -7 -23 -5 -26 2 -3 -3
-6 -10 -6 -7 0 -13 5 -13 11 0 6 -4 20 -8 31 -5 14 -4 16 3 7 7 -11 10 -11 15
3 4 9 3 13 -3 10 -6 -3 -10 -1 -10 5 0 6 -5 8 -12 3 -18 -10 -58 -12 -58 -1 0
4 -11 8 -25 8 -14 0 -25 5 -25 11 0 5 -5 7 -10 4 -6 -3 -13 1 -16 10 -4 9 -13
14 -20 11 -8 -3 -14 1 -14 11 0 9 -3 13 -7 10 -11 -11 -32 26 -33 57 0 16 -9
43 -19 60 -11 17 -20 35 -20 39 0 4 -9 28 -22 53 -18 39 -21 56 -15 110 7 67
74 239 102 260 8 6 14 14 14 18 0 10 34 39 100 83 30 20 58 41 62 47 5 7 8 7
8 -2 0 -7 11 -1 25 14 14 15 25 22 25 15 0 -21 18 -11 24 13 6 25 31 36 82 36
18 0 47 12 70 28 39 29 131 65 189 75 17 3 41 8 55 12 14 3 75 8 136 11 146 8
148 8 154 16 5 6 75 16 208 30 6 1 12 4 12 8 0 11 84 32 111 28 14 -2 23 2 22
9 -3 14 147 10 226 -6z m501 -1174 c0 -4 -6 -2 -14 5 -8 7 -12 17 -9 22 5 8
23 -12 23 -27z m-1728 -19 c-7 -7 -12 -8 -12 -2 0 6 3 14 7 17 3 4 9 5 12 2 2
-3 -1 -11 -7 -17z m-324 -605 c12 -24 26 -60 31 -80 4 -22 13 -37 20 -35 8 1
10 -2 5 -10 -10 -16 -6 -59 7 -73 6 -5 9 -5 9 3 0 6 6 9 14 6 17 -6 55 32 62
62 6 23 42 44 77 44 17 0 29 -15 53 -65 l32 -64 -52 -12 c-40 -8 -65 -23 -109
-64 -42 -38 -81 -61 -140 -85 -45 -17 -88 -34 -94 -37 -17 -7 -16 107 1 203 7
39 10 99 8 133 -4 58 -3 61 19 62 24 2 24 2 2 6 -27 5 -26 2 -9 44 7 19 17 43
21 54 7 17 9 15 15 -15 3 -19 16 -54 28 -77z m-179 25 c-5 -24 -11 -71 -14
-105 -2 -34 -6 -66 -7 -71 -2 -6 12 -24 31 -41 26 -23 30 -31 17 -31 -10 0
-14 -5 -10 -12 4 -6 9 -25 11 -42 2 -17 5 -40 7 -51 1 -11 -5 -32 -14 -48 -10
-16 -15 -37 -13 -48 3 -10 0 -19 -6 -19 -25 0 -9 -20 17 -21 18 0 22 -3 12 -7
-17 -8 -26 -42 -11 -42 6 0 8 -7 5 -15 -5 -11 1 -15 20 -15 14 0 26 -4 26 -10
0 -14 20 -12 53 4 25 14 27 14 28 -7 0 -12 2 -46 4 -74 3 -53 3 -53 -26 -53
-17 0 -77 7 -135 16 -74 12 -104 21 -104 30 0 8 5 14 10 14 6 0 10 5 10 10 0
13 -77 13 -84 1 -4 -5 0 -12 6 -14 7 -3 3 -6 -9 -6 -28 -1 -30 -17 -3 -31 11
-6 20 -20 20 -30 0 -11 2 -20 4 -20 2 0 13 -3 23 -6 15 -5 15 -4 3 5 -8 5 -12
13 -9 16 11 10 34 -5 46 -30 9 -21 8 -27 -5 -34 -13 -7 -11 -10 9 -17 37 -12
45 -13 60 -3 11 7 10 9 -3 9 -19 0 -25 34 -8 45 13 8 13 35 0 35 -6 0 -9 -3
-9 -7 4 -22 -3 -33 -20 -33 -15 0 -19 6 -17 28 4 31 7 32 135 9 47 -8 91 -13
98 -10 7 3 13 1 13 -3 3 -62 11 -147 14 -152 2 -4 17 -7 33 -6 15 0 65 2 110
2 46 1 82 5 82 10 -1 4 0 16 1 27 2 15 4 12 9 -9 l6 -29 118 -4 117 -5 2 49 1
48 6 -45 6 -45 195 -5 c107 -3 191 -7 185 -9 -5 -2 -13 -3 -17 -2 -5 0 -8 -4
-8 -9 0 -6 14 -10 31 -10 17 0 28 4 24 10 -4 6 6 10 22 11 15 0 48 2 72 5 39
5 43 3 36 -13 -4 -10 -12 -41 -17 -70 -6 -30 -15 -51 -21 -50 -8 1 -12 -26
-13 -91 l-1 -92 -219 -4 c-120 -3 -232 -5 -247 -5 -16 -1 -26 -5 -22 -11 3 -5
-1 -10 -10 -10 -9 0 -14 4 -11 9 9 14 -11 16 -129 16 -83 0 -109 -3 -108 -12
4 -18 -14 -16 -20 1 -8 19 -193 18 -190 -1 2 -7 -2 -13 -7 -13 -6 0 -10 7 -10
16 0 8 -4 13 -8 10 -5 -3 -9 -26 -11 -53 -2 -52 -8 -64 -20 -45 -5 9 -48 13
-152 13 -79 1 -138 3 -131 6 17 7 15 40 -4 47 -8 3 -24 1 -35 -5 -19 -10 -19
-9 -9 10 6 12 7 21 3 21 -4 0 -2 5 5 12 7 7 12 21 12 33 0 11 7 33 15 49 20
38 20 38 -17 32 -39 -6 -53 -20 -71 -73 -13 -37 -13 -41 2 -36 12 3 11 1 -2
-7 -10 -6 -25 -9 -33 -6 -12 4 -14 1 -9 -14 5 -15 3 -18 -9 -14 -9 3 -14 9
-12 13 3 4 0 26 -6 49 -8 32 -13 38 -23 29 -7 -7 -10 -18 -8 -24 3 -7 0 -13
-6 -13 -6 0 -8 -7 -5 -15 4 -9 0 -15 -10 -15 -18 0 -21 21 -6 48 5 9 18 38 29
65 11 26 25 47 32 47 7 0 10 3 7 6 -8 8 44 100 65 115 5 3 9 12 11 20 4 27 31
59 48 59 23 0 22 9 -1 39 -26 34 -48 16 -94 -77 -61 -123 -104 -201 -110 -196
-2 3 -7 -7 -11 -21 -4 -14 -13 -25 -20 -25 -8 0 -17 -12 -20 -26 -9 -36 -50
-74 -81 -74 -28 0 -35 27 -10 36 15 6 22 44 8 44 -9 0 -33 -49 -33 -67 0 -8
-13 -13 -35 -13 -39 0 -44 9 -15 28 11 7 20 20 20 30 0 12 3 14 8 4 6 -9 12
-5 22 13 7 14 18 25 23 25 5 0 23 11 39 25 39 33 48 25 14 -12 -27 -29 -33
-43 -17 -43 18 0 62 71 121 196 34 71 70 139 81 150 11 12 19 25 18 30 -1 5 0
16 4 24 20 52 37 109 41 135 2 17 12 52 21 78 9 27 14 51 11 55 -3 3 -1 11 5
18 6 7 12 28 14 46 9 72 16 97 49 203 50 155 56 175 58 215 3 29 9 38 38 52
19 10 36 18 36 18 1 0 -3 -19 -7 -42z m1901 -18 c8 -5 11 -12 7 -16 -4 -4 -2
-13 4 -21 9 -10 8 -18 -5 -31 -9 -10 -16 -26 -16 -35 0 -9 -6 -14 -13 -11 -7
2 -19 -6 -26 -20 -12 -22 -36 -36 -66 -40 -5 -1 -15 -5 -22 -9 -6 -4 -13 -2
-15 4 -4 12 -46 -6 -60 -25 -4 -6 -15 1 -26 14 -19 24 -19 24 -103 10 -93 -16
-187 -18 -296 -8 -42 3 -73 2 -73 -3 0 -5 -7 -5 -17 0 -27 14 -57 24 -66 22
-15 -3 -87 22 -87 30 0 5 -20 6 -46 4 -32 -4 -43 -2 -38 7 5 7 0 9 -14 6 -12
-3 -37 0 -57 6 -28 10 -33 15 -23 24 22 17 85 4 120 -25 13 -12 20 -12 36 -2
16 10 26 9 57 -10 21 -12 40 -19 43 -16 3 3 -1 5 -8 5 -11 0 -11 3 -2 12 10
10 15 10 22 -2 7 -12 12 -12 22 -2 9 9 9 12 -1 12 -7 0 -20 8 -29 17 -16 16
-16 16 1 10 10 -4 27 -1 38 6 16 10 22 9 30 -3 7 -10 12 -11 15 -4 4 9 17 9
47 2 23 -6 49 -11 57 -12 9 -1 21 -6 29 -10 8 -5 17 -3 22 5 6 10 9 11 9 1 0
-12 31 -11 138 2 23 3 35 0 39 -10 6 -16 49 -19 58 -3 4 6 14 8 22 5 9 -4 21
-1 29 4 7 6 18 10 26 9 7 -2 29 6 48 16 19 11 40 20 45 20 6 1 9 6 8 13 -2 7
4 12 12 12 8 0 15 7 15 16 0 11 6 14 21 9 16 -5 19 -4 14 6 -6 9 -2 11 13 7
12 -4 25 -2 28 3 7 11 15 11 34 -1z m904 -92 c8 -13 26 -68 41 -123 15 -55 30
-107 33 -115 11 -32 10 -41 -8 -50 -15 -8 -17 -16 -10 -40 9 -30 8 -30 -31
-30 -24 0 -39 5 -39 13 0 6 -5 28 -10 48 -8 28 -17 39 -37 44 -16 4 -22 9 -16
13 8 5 9 13 3 22 -7 10 -10 11 -10 3 0 -21 -18 -15 -25 8 -4 12 -2 26 4 32 18
18 -6 44 -54 57 -44 12 -88 11 -275 -5 -35 -4 -48 -2 -35 3 19 8 19 9 0 19
-19 11 -30 56 -11 50 6 -2 10 -10 9 -18 -4 -21 32 -39 65 -33 34 7 59 41 43
57 -14 14 -14 30 -1 22 6 -3 10 -2 10 4 0 5 -6 12 -12 14 -15 6 66 10 137 7
53 -2 81 -20 87 -55 3 -22 28 -46 41 -38 4 2 5 9 2 14 -4 5 -1 9 4 9 6 0 11 9
11 19 0 10 7 21 15 25 8 3 15 15 15 26 0 28 36 26 54 -2z m-2967 -2 c13 -12
-12 -26 -46 -26 -44 0 -54 7 -38 26 11 13 71 13 84 0z m-117 -15 c0 -5 12 -12
26 -15 l27 -7 -22 -15 c-11 -8 -26 -12 -31 -9 -6 3 -10 2 -10 -2 0 -5 -10 -13
-22 -18 -12 -6 -33 -31 -45 -57 -24 -47 -43 -62 -43 -33 0 9 -6 12 -15 9 -8
-4 -15 -1 -15 5 0 6 -5 11 -11 11 -7 0 -18 8 -26 18 -8 9 -12 12 -9 6 3 -7 -5
-14 -19 -16 -13 -3 -26 0 -28 6 -2 6 -7 8 -11 5 -14 -13 6 -34 35 -35 32 -1
68 -28 55 -41 -4 -4 -12 0 -17 10 -6 9 -17 17 -26 17 -13 0 -13 -3 -3 -16 8
-8 9 -14 4 -13 -21 4 -28 -2 -14 -11 12 -8 11 -10 -7 -10 -13 0 -22 -5 -20
-12 1 -6 -6 -14 -15 -16 -10 -2 -18 1 -18 7 0 6 5 11 11 11 8 0 8 5 -1 15 -9
10 -9 15 -1 15 6 0 11 5 11 10 0 6 -7 10 -15 10 -8 0 -15 5 -15 10 0 6 8 10
18 10 14 0 13 4 -7 19 -25 19 -22 24 20 34 63 15 101 18 94 8 -3 -6 -1 -11 4
-11 6 0 11 7 11 15 0 18 24 31 73 40 20 4 37 11 37 15 0 5 10 6 21 3 19 -5 20
-4 10 16 -8 14 -8 21 -1 21 5 0 10 -4 10 -9z m-521 -32 c-8 -5 -10 -9 -6 -9 5
0 5 -5 1 -11 -5 -8 -9 -8 -14 1 -4 7 -1 20 9 29 9 9 18 13 20 8 2 -5 -3 -13
-10 -18z m3226 1 c9 -14 -17 -38 -34 -32 -9 3 -11 0 -6 -8 5 -9 4 -11 -3 -6
-17 10 -15 26 3 26 8 0 15 7 15 15 0 17 16 20 25 5z m-2545 -20 c0 -12 -10
-24 -22 -30 -13 -5 -17 -9 -10 -9 14 -1 16 -42 3 -56 -5 -6 -16 -36 -25 -67
-9 -31 -22 -63 -29 -70 -8 -7 -12 -19 -9 -26 2 -7 -7 -12 -25 -13 l-28 -1 25
-8 25 -8 -27 -1 c-16 -1 -28 4 -28 9 0 6 -9 10 -19 10 -26 0 -32 22 -15 55 8
15 14 36 14 48 0 22 50 87 114 148 45 44 56 48 56 19z m1840 -77 c0 -5 -11 -8
-25 -8 -14 0 -25 3 -25 8 0 4 11 7 25 7 14 0 25 -3 25 -7z m-1010 -37 c6 -8
28 -20 48 -27 20 -6 42 -14 47 -18 35 -20 170 -25 235 -9 47 13 64 13 120 1
187 -40 214 -38 413 27 16 5 35 6 43 3 9 -3 14 1 14 13 0 12 3 15 8 8 8 -12
102 -35 113 -28 4 2 32 5 61 5 29 0 74 7 100 14 82 24 73 -9 -14 -55 -40 -22
-65 -49 -33 -36 18 7 18 6 0 -14 -11 -12 -27 -19 -36 -17 -9 2 -31 -9 -49 -24
-18 -16 -36 -29 -40 -29 -4 0 -17 -9 -30 -20 l-23 -20 29 0 c16 0 25 -4 19 -8
-10 -7 -16 -32 -16 -64 0 -9 -13 -21 -30 -27 -18 -6 -29 -6 -29 0 0 5 -12 9
-27 9 -18 0 -23 -3 -16 -8 10 -7 10 -11 0 -25 -17 -22 -110 -57 -135 -50 -12
3 -32 -4 -50 -17 l-30 -22 -44 29 c-65 44 -68 46 -68 30 0 -8 10 -17 23 -21
18 -5 20 -8 7 -16 -20 -13 -33 -13 -24 1 4 7 0 9 -14 5 -19 -6 -20 -4 -12 23
8 30 7 31 -68 74 -42 25 -99 55 -127 69 -27 13 -80 41 -116 61 -36 20 -69 34
-72 30 -4 -3 -7 -1 -7 6 0 7 -5 9 -11 5 -6 -3 -9 -15 -6 -25 3 -12 0 -19 -9
-19 -8 0 -14 9 -14 20 0 11 -11 27 -25 36 -14 9 -24 19 -21 21 2 3 16 -3 30
-13 15 -9 29 -14 33 -11 3 4 -12 15 -33 25 -21 9 -58 30 -81 45 -24 15 -46 27
-50 27 -5 0 -16 12 -26 25 -18 25 -18 25 6 25 14 0 30 -7 37 -14z m-1111 -26
c5 -16 8 -30 6 -30 -2 0 -10 14 -19 30 -8 17 -11 30 -6 30 4 0 13 -13 19 -30z
m-870 -10 c-6 -16 -15 -30 -20 -30 -5 0 -3 14 6 30 9 17 17 30 20 30 2 0 -1
-13 -6 -30z m1911 -19 c19 -17 31 -30 25 -30 -5 0 -30 18 -55 41 -50 45 -25
36 30 -11z m1372 -1 c-12 -32 -6 -63 16 -97 13 -21 13 -23 -6 -23 -23 0 -32
18 -32 63 0 40 21 116 27 99 3 -7 0 -26 -5 -42z m84 -12 c-3 -13 -5 -25 -5
-27 -1 -3 -6 0 -13 7 -8 8 -8 15 2 27 17 21 21 19 16 -7z m-2576 -8 c0 -5 -2
-10 -4 -10 -3 0 -8 5 -11 10 -3 6 -1 10 4 10 6 0 11 -4 11 -10z m-37 -23 c4 3
7 1 7 -5 0 -7 -2 -12 -4 -12 -2 0 -13 -3 -23 -6 -15 -5 -15 -4 -3 5 13 9 12
11 -3 11 -10 0 -15 5 -12 10 5 8 11 8 19 1 7 -6 16 -8 19 -4z m1172 -5 c-3 -3
-11 0 -18 7 -9 10 -8 11 6 5 10 -3 15 -9 12 -12z m1275 3 c-7 -8 -18 -15 -24
-15 -6 0 -2 7 8 15 25 19 32 19 16 0z m255 -28 c16 -5 15 -5 -4 -4 -14 1 -26
9 -28 17 -3 10 -2 11 4 4 4 -7 17 -14 28 -17z m-255 -37 c-20 -13 -60 -13 -60
0 0 6 17 10 38 10 27 0 33 -3 22 -10z m-983 -35 l28 -25 -37 17 c-21 9 -38 20
-38 25 0 15 19 8 47 -17z m928 5 c-3 -5 -12 -10 -18 -10 -7 0 -6 4 3 10 19 12
23 12 15 0z m-851 -61 c-4 -8 0 -9 15 -4 16 5 20 3 15 -9 -3 -8 -12 -12 -20
-9 -8 3 -14 0 -14 -6 0 -6 -5 -11 -11 -11 -5 0 -7 5 -4 10 3 6 1 10 -4 10 -6
0 -11 7 -11 15 0 8 9 15 21 15 12 0 17 -4 13 -11z m776 1 c0 -5 -5 -10 -11
-10 -5 0 -7 5 -4 10 3 6 8 10 11 10 2 0 4 -4 4 -10z m-696 -23 c-3 -9 9 -20
33 -30 21 -9 28 -14 16 -11 -59 14 -61 13 -59 -11 2 -16 -1 -22 -10 -18 -8 3
-11 9 -8 14 3 5 1 9 -4 9 -10 0 -9 30 2 48 10 16 37 15 30 -1z m671 -32 c-16
-14 -54 -34 -83 -45 -57 -22 -77 -25 -50 -9 10 5 19 9 20 7 2 -1 14 5 28 15
13 9 32 17 42 17 10 0 18 4 18 8 0 8 36 30 50 31 3 0 -8 -11 -25 -24z m-1588
-37 c-3 -7 -5 -2 -5 12 0 14 2 19 5 13 2 -7 2 -19 0 -25z m1031 -24 l35 -35
-29 7 c-35 8 -43 15 -26 21 8 3 5 11 -10 24 -13 10 -19 18 -14 19 4 0 24 -16
44 -36z m-1993 4 c5 4 5 1 1 -6 -5 -8 0 -22 11 -34 10 -12 13 -18 6 -14 -7 3
-22 21 -35 39 -12 18 -15 26 -7 20 9 -7 20 -9 24 -5z m2346 -39 c-18 -11 -35
-18 -38 -15 -5 5 46 35 62 36 6 0 -5 -9 -24 -21z m-51 -17 c0 -9 -109 -46
-116 -39 -2 2 14 10 36 17 23 8 43 17 46 22 7 10 34 10 34 0z m-2440 -6 c0
-11 -19 -15 -25 -6 -3 5 1 10 9 10 9 0 16 -2 16 -4z m3217 -58 c-3 -8 -6 -5
-6 6 -1 11 2 17 5 13 3 -3 4 -12 1 -19z m-1063 6 c9 -3 16 -12 16 -19 0 -18
21 -24 45 -13 17 8 17 7 -2 -11 -27 -23 -63 -17 -63 10 0 10 -8 23 -17 28 -20
11 -4 15 21 5z m-14 -24 c0 -4 -9 -15 -20 -25 -19 -17 -20 -17 -20 -1 0 9 5
14 10 11 6 -3 10 -1 10 4 0 6 -4 11 -10 11 -5 0 -10 4 -10 9 0 5 9 7 20 4 11
-3 20 -9 20 -13z m-2787 3 c-7 -2 -19 -2 -25 0 -7 3 -2 5 12 5 14 0 19 -2 13
-5z m2995 -19 c25 -18 28 -36 8 -54 -13 -10 -15 -7 -13 16 1 21 -4 31 -23 41
-14 7 -19 13 -10 13 9 0 26 -7 38 -16z m-2745 -25 c16 -9 22 -9 25 0 2 6 8 11
14 11 6 0 5 -6 -2 -15 -18 -22 2 -44 23 -26 19 15 62 -3 95 -39 79 -84 101
-109 127 -145 l30 -40 -45 34 c-26 19 5 -17 72 -85 125 -127 143 -146 116
-125 -11 8 -18 9 -18 3 0 -6 -24 13 -52 42 -29 29 -89 81 -132 117 -44 35
-107 89 -140 121 -34 31 -82 76 -108 100 -27 25 -48 47 -48 51 0 10 19 8 43
-4z m2675 -9 c7 -11 20 -20 29 -20 9 0 14 -3 10 -6 -10 -10 -47 7 -57 27 -14
25 2 25 18 -1z m-2773 -40 c-3 -5 -11 -10 -16 -10 -6 0 -7 5 -4 10 3 6 11 10
16 10 6 0 7 -4 4 -10z m53 -45 c-3 -3 -9 2 -12 12 -6 14 -5 15 5 6 7 -7 10
-15 7 -18z m811 -35 c0 -33 -4 -60 -10 -60 -5 0 -9 -11 -9 -24 0 -14 -5 -28
-11 -31 -6 -4 -8 -13 -6 -19 3 -7 1 -19 -4 -27 -8 -12 -10 -12 -18 1 -11 16
-5 59 15 113 8 20 14 50 14 66 0 28 7 41 21 41 4 0 8 -27 8 -60z m-759 20 c0
-5 -4 -20 -10 -34 -9 -25 -4 -31 23 -27 4 0 7 -8 7 -19 0 -18 3 -19 20 -10 13
7 20 7 20 1 0 -6 7 -8 15 -5 8 4 15 1 15 -6 0 -7 7 -10 16 -6 9 4 13 2 8 -5
-4 -8 1 -9 15 -4 17 5 21 2 21 -17 0 -16 3 -19 9 -10 6 10 22 2 67 -32 68 -51
113 -96 95 -96 -6 0 -33 11 -59 24 -26 13 -65 29 -87 36 -36 12 -89 35 -137
61 -10 5 -24 9 -31 9 -7 0 -24 10 -37 22 -16 15 -25 18 -28 10 -8 -25 -20 -11
-19 24 1 19 -5 39 -11 43 -10 6 -10 10 2 20 12 10 16 9 24 -5 9 -16 12 -16 27
-4 9 7 14 21 12 31 -3 12 0 16 9 12 8 -3 14 -9 14 -13z m620 0 c0 -5 -2 -10
-4 -10 -3 0 -8 5 -11 10 -3 6 -1 10 4 10 6 0 11 -4 11 -10z m2210 -100 c0 -5
-4 -10 -10 -10 -5 0 -10 5 -10 10 0 6 5 10 10 10 6 0 10 -4 10 -10z m-2860
-78 c0 -4 -5 -13 -12 -20 -9 -9 -8 -12 7 -12 10 0 16 -2 13 -5 -3 -4 -17 -3
-32 1 -21 5 -24 9 -15 25 9 19 39 27 39 11z m54 -29 c-8 21 -10 21 72 -4 87
-26 164 -59 164 -69 0 -4 11 -11 24 -14 18 -4 23 -11 19 -26 -3 -11 0 -20 6
-20 6 0 11 -7 11 -15 0 -8 -4 -15 -10 -15 -5 0 -10 5 -10 11 0 5 -4 8 -9 4 -5
-3 -12 -1 -16 5 -5 9 -80 52 -95 55 -49 10 -70 19 -70 30 0 7 -21 18 -47 25
-55 13 -73 26 -73 49 0 12 5 10 20 -9 12 -15 18 -18 14 -7z m671 -10 c-5 -10
-9 -22 -9 -28 -1 -5 -5 -11 -11 -12 -10 -2 -10 8 1 56 4 17 8 21 16 13 6 -6 7
-18 3 -29z m1782 -15 c-3 -8 -6 -5 -6 6 -1 11 2 17 5 13 3 -3 4 -12 1 -19z
m-2599 -13 c-6 -14 -13 -24 -14 -22 -6 6 9 47 17 47 5 0 3 -11 -3 -25z m594
-6 c-26 -10 -37 2 -17 18 15 10 20 10 27 1 4 -8 1 -15 -10 -19z m2083 11 c-3
-5 -12 -10 -18 -10 -7 0 -6 4 3 10 19 12 23 12 15 0z m-2061 -29 c6 -9 -16
-21 -40 -21 -20 0 -17 18 4 23 28 8 31 7 36 -2z m616 -1 c0 -5 -5 -10 -11 -10
-5 0 -7 5 -4 10 3 6 8 10 11 10 2 0 4 -4 4 -10z m1690 -15 c0 -8 -4 -15 -10
-15 -5 0 -7 7 -4 15 4 8 8 15 10 15 2 0 4 -7 4 -15z m-2290 -25 c0 -5 -7 -10
-16 -10 -8 0 -12 5 -9 10 3 6 10 10 16 10 5 0 9 -4 9 -10z m1205 -10 c3 -5 1
-10 -4 -10 -6 0 -11 5 -11 10 0 6 2 10 4 10 3 0 8 -4 11 -10z m252 -22 c-3 -7
-5 -2 -5 12 0 14 2 19 5 13 2 -7 2 -19 0 -25z m-1761 -28 c6 0 14 -7 18 -15 3
-10 -1 -15 -12 -15 -15 0 -15 -2 -2 -10 13 -8 12 -10 -2 -10 -10 0 -18 5 -18
11 0 5 -4 8 -9 5 -5 -4 -19 -2 -32 2 l-23 9 22 5 c14 4 20 2 16 -4 -4 -6 -1
-9 6 -6 22 7 23 28 3 28 -11 0 -24 5 -31 12 -9 9 -13 8 -17 -5 -4 -9 -13 -13
-21 -10 -20 8 -17 23 4 17 16 -5 16 -5 0 9 -30 25 -9 25 39 1 25 -13 52 -24
59 -24z m321 24 c-3 -3 -12 -4 -19 -1 -8 3 -5 6 6 6 11 1 17 -2 13 -5z m716
-31 c-7 -2 -19 -2 -25 0 -7 3 -2 5 12 5 14 0 19 -2 13 -5z m50 0 c-7 -2 -19
-2 -25 0 -7 3 -2 5 12 5 14 0 19 -2 13 -5z m74 1 c-3 -3 -12 -4 -19 -1 -8 3
-5 6 6 6 11 1 17 -2 13 -5z m66 -1 c-7 -2 -21 -2 -30 0 -10 3 -4 5 12 5 17 0
24 -2 18 -5z m1167 -13 c0 -5 -4 -10 -10 -10 -5 0 -10 5 -10 10 0 6 5 10 10
10 6 0 10 -4 10 -10z m-2337 -13 c7 -20 -6 -37 -21 -28 -7 4 -10 15 -6 24 7
20 20 22 27 4z m1190 4 c12 -1 17 -9 17 -28 l-1 -28 -19 24 c-12 14 -20 18
-20 10 0 -11 -2 -11 -10 1 -5 8 -10 10 -10 3 0 -6 -9 -9 -20 -6 -11 3 -20 1
-20 -5 0 -15 -48 -24 -68 -13 -10 6 -12 11 -4 11 6 0 12 4 12 10 0 5 -8 9 -17
8 -10 -1 -56 0 -103 2 l-85 4 75 5 c64 5 216 6 273 2z m262 -1 c3 -5 1 -10 -4
-10 -6 0 -11 5 -11 10 0 6 2 10 4 10 3 0 8 -4 11 -10z m253 -57 l-1 -68 -6 60
c-4 33 -5 63 -3 68 9 20 12 1 10 -60z m-1673 47 c3 -5 1 -10 -4 -10 -6 0 -11
5 -11 10 0 6 2 10 4 10 3 0 8 -4 11 -10z m788 3 c-7 -2 -19 -2 -25 0 -7 3 -2
5 12 5 14 0 19 -2 13 -5z m-1000 -17 c4 -10 1 -13 -8 -9 -8 3 -12 9 -9 14 7
12 11 11 17 -5z m2598 -33 c13 -16 12 -17 -3 -4 -17 13 -22 21 -14 21 2 0 10
-8 17 -17z m-2744 -9 c-3 -3 -12 -4 -19 -1 -8 3 -5 6 6 6 11 1 17 -2 13 -5z
m2783 -14 c0 -5 -2 -10 -4 -10 -3 0 -8 5 -11 10 -3 6 -1 10 4 10 6 0 11 -4 11
-10z m-1393 -22 c-3 -8 -6 -5 -6 6 -1 11 2 17 5 13 3 -3 4 -12 1 -19z m-1419
-51 c15 -43 15 -60 0 -55 -7 3 -13 16 -14 29 -1 13 -5 32 -9 42 -4 9 -3 17 2
17 5 0 14 -15 21 -33z m1327 13 c16 -7 11 -9 -22 -9 -23 -1 -45 4 -48 9 -8 12
42 12 70 0z m241 -3 c4 -4 -41 -7 -99 -7 -59 0 -107 4 -107 8 0 9 197 9 206
-1z m-1509 -42 c0 -17 0 -17 -21 -9 -22 8 -20 24 2 24 10 0 19 -7 19 -15z
m-151 -18 c4 -4 -2 -7 -14 -7 -12 0 -22 4 -22 9 0 10 26 9 36 -2z m1539 -37
c3 -5 1 -10 -4 -10 -6 0 -11 5 -11 10 0 6 2 10 4 10 3 0 8 -4 11 -10z m-1465
-4 c0 -3 -4 -8 -10 -11 -5 -3 -10 -1 -10 4 0 6 5 11 10 11 6 0 10 -2 10 -4z"/>
<path d="M3558 3035 c-3 -3 -23 -8 -45 -11 -21 -2 -51 -6 -68 -9 -16 -3 -57
-7 -90 -10 -65 -6 -155 -34 -155 -48 0 -4 -5 -5 -10 -2 -6 4 -21 8 -35 11 -20
3 -26 -1 -31 -21 -4 -18 -15 -26 -40 -31 -20 -4 -36 -13 -39 -25 -7 -23 29
-79 51 -79 8 0 24 -9 36 -20 23 -21 48 -27 48 -10 0 6 37 10 92 10 105 0 115
10 12 12 -38 1 -60 3 -49 5 11 2 27 7 35 10 8 4 17 7 20 8 3 1 18 8 33 15 26
13 30 12 45 -7 24 -30 55 -43 102 -43 33 0 48 6 72 31 25 24 36 29 59 24 16
-4 31 -11 35 -16 8 -13 -80 -49 -104 -42 -16 4 -20 1 -18 -14 2 -10 5 -16 8
-13 3 3 13 -2 23 -10 11 -8 16 -10 12 -3 -6 9 4 11 35 9 48 -4 128 12 128 25
0 5 7 6 15 3 8 -4 15 -2 15 4 0 6 13 13 29 17 28 6 49 41 33 56 -19 19 -142
49 -196 49 -34 0 -67 4 -74 9 -17 10 106 22 163 15 22 -3 63 -6 92 -7 28 -1
49 -6 45 -11 -3 -5 2 -6 12 -3 10 4 23 7 29 7 8 0 8 3 0 11 -6 6 -9 17 -6 24
7 21 -38 44 -118 61 -89 19 -191 28 -201 19z m-8 -145 c11 -7 -5 -10 -52 -9
-37 1 -65 6 -62 10 7 12 96 11 114 -1z m-75 -30 c-3 -5 -10 -10 -16 -10 -5 0
-9 5 -9 10 0 6 7 10 16 10 8 0 12 -4 9 -10z"/>
<path d="M2098 3004 c-85 -22 -179 -66 -178 -83 0 -3 7 -14 14 -23 10 -14 22
-16 62 -12 27 4 61 6 77 6 15 0 27 4 27 8 0 15 114 28 170 20 30 -5 64 -9 75
-10 35 -3 -24 -18 -77 -19 -39 -1 -113 -13 -216 -35 -66 -14 -54 -56 21 -70
15 -2 32 -8 38 -12 7 -4 50 -8 96 -10 89 -2 106 9 43 30 -42 14 -49 33 -15 42
19 5 32 1 48 -13 54 -47 68 -51 122 -34 33 11 53 24 60 39 5 12 15 20 22 18 6
-3 28 -8 47 -12 20 -3 39 -10 42 -15 3 -5 16 -9 30 -9 49 0 22 -19 -33 -23
-32 -2 -21 -3 25 -2 l83 3 -23 -26 -23 -25 44 24 c24 13 46 31 48 39 2 8 20
25 39 38 18 12 34 27 34 33 0 13 -40 66 -45 59 -2 -3 -12 3 -23 13 -12 11 -26
16 -31 12 -6 -3 -11 -2 -11 3 0 12 -80 28 -235 46 -238 28 -251 28 -357 0z
m289 -120 c-3 -3 -12 -4 -19 -1 -8 3 -5 6 6 6 11 1 17 -2 13 -5z m13 -34 c0
-5 -7 -10 -16 -10 -8 0 -12 5 -9 10 3 6 10 10 16 10 5 0 9 -4 9 -10z"/>
<path d="M2310 2768 c0 -8 7 -15 15 -15 18 0 15 19 -3 25 -7 2 -12 -3 -12 -10z"/>
<path d="M3325 2763 c22 -22 18 -21 97 -26 32 -2 55 -1 53 4 -3 4 -17 6 -31 4
-18 -2 -22 1 -15 8 23 23 10 29 -14 7 -14 -13 -25 -18 -25 -11 0 7 -4 9 -10 6
-5 -3 -10 -2 -10 3 0 5 -6 9 -12 9 -7 0 -22 4 -33 8 l-20 8 20 -20z"/>
<path d="M3485 2770 c-3 -5 -1 -10 4 -10 6 0 11 5 11 10 0 6 -2 10 -4 10 -3 0
-8 -4 -11 -10z"/>
<path d="M2420 2756 c0 -2 7 -6 15 -10 8 -3 15 -1 15 4 0 6 -7 10 -15 10 -8 0
-15 -2 -15 -4z"/>
<path d="M2482 2745 c-15 -18 -8 -18 38 0 l35 13 -30 1 c-16 0 -36 -6 -43 -14z"/>
<path d="M2594 2554 c-9 -34 24 -78 60 -82 24 -3 27 -7 21 -25 -3 -12 -7 -27
-7 -34 -1 -7 -4 -10 -8 -8 -3 2 -12 0 -20 -5 -8 -5 -22 -4 -33 1 -12 7 -23 7
-32 -1 -9 -8 -15 -8 -20 0 -5 8 -10 8 -20 0 -11 -9 -29 -15 -81 -24 -5 -1 -21
-12 -34 -24 -13 -12 -32 -22 -41 -22 -10 0 -21 -5 -24 -10 -4 -6 -10 -8 -15
-5 -13 8 -21 -26 -9 -41 6 -7 8 -17 5 -23 -12 -18 22 -19 53 0 17 10 31 14 31
9 0 -5 13 -8 30 -7 16 1 30 6 30 10 0 5 23 6 50 3 28 -3 83 -2 123 4 39 5 180
11 312 15 194 4 245 3 266 -8 19 -10 56 -13 133 -11 58 1 106 -1 106 -5 0 -7
17 -11 65 -14 25 -2 30 2 31 23 2 34 -14 63 -32 56 -7 -3 -17 1 -21 7 -18 29
-80 64 -118 66 -22 1 -44 8 -50 14 -5 7 -29 12 -53 11 -60 -1 -71 17 -38 61
l27 35 -26 0 c-32 0 -117 20 -128 30 -10 9 -82 -5 -115 -22 -18 -10 -43 -9
-113 3 -50 8 -92 12 -95 8 -4 -7 -33 -12 -132 -25 -51 -7 -76 8 -67 43 3 13 3
23 0 23 -2 0 -8 -12 -11 -26z m144 -115 c-3 -8 -7 -3 -11 10 -4 17 -3 21 5 13
5 -5 8 -16 6 -23z m162 21 c0 -5 -5 -10 -11 -10 -5 0 -7 5 -4 10 3 6 8 10 11
10 2 0 4 -4 4 -10z m113 -8 c-19 -3 -22 -9 -19 -48 3 -48 3 -48 47 -39 18 4
36 2 44 -5 12 -10 15 -10 15 1 0 11 2 11 10 -1 8 -12 12 -12 18 -2 7 9 13 8
27 -8 18 -20 18 -20 -26 -21 -57 -1 -101 -17 -50 -18 19 -1 32 -3 29 -6 -5 -5
-294 -10 -328 -5 -11 1 -10 4 5 11 14 7 3 8 -37 5 -32 -3 -58 0 -58 5 0 5 6 9
13 10 6 0 21 3 32 5 11 3 43 7 72 8 28 2 57 7 65 12 7 5 27 9 43 10 60 3 65 4
65 20 0 9 -5 12 -12 8 -8 -5 -9 -2 -5 9 4 10 1 17 -6 17 -8 0 -6 4 3 10 13 8
13 10 -2 10 -9 0 -20 6 -24 13 -4 6 -4 9 0 6 4 -4 19 -4 34 0 15 4 36 5 47 2
19 -5 19 -6 -2 -9z m-303 -1 c0 -5 -7 -14 -15 -21 -10 -9 -15 -9 -15 -1 0 6 5
11 11 11 5 0 7 5 4 10 -3 6 -1 10 4 10 6 0 11 -4 11 -9z m63 -6 c4 -8 2 -17
-3 -20 -6 -4 -10 3 -10 14 0 25 6 27 13 6z m99 -17 c-7 -7 -8 -17 -2 -28 5
-10 5 -22 -2 -31 -8 -12 -9 -11 -5 2 3 9 1 22 -3 30 -8 12 4 39 18 39 3 0 1
-5 -6 -12z"/>
<path d="M2818 2323 c7 -3 16 -2 19 1 4 3 -2 6 -13 5 -11 0 -14 -3 -6 -6z"/>
<path d="M2390 2360 c-8 -5 -12 -11 -10 -14 3 -2 14 2 24 10 22 15 10 19 -14
4z"/>
<path d="M2900 2186 c-19 -7 -52 -13 -73 -12 -20 1 -37 -3 -37 -7 0 -5 -4 -5
-10 -2 -5 3 -10 1 -10 -5 0 -6 -5 -8 -11 -5 -6 4 -5 -2 3 -14 11 -17 21 -20
63 -18 27 2 69 0 92 -3 31 -5 44 -3 47 7 4 10 11 11 23 5 18 -10 147 -7 164 3
5 4 9 13 9 21 0 11 5 12 18 6 22 -12 42 -5 42 14 0 12 -12 14 -52 12 -29 -1
-81 1 -116 6 -44 5 -67 5 -76 -3 -10 -8 -16 -9 -21 -1 -8 12 -11 12 -55 -4z"/>
<path d="M1760 1615 c0 -8 4 -15 10 -15 5 0 7 7 4 15 -4 8 -8 15 -10 15 -2 0
-4 -7 -4 -15z"/>
<path d="M1765 1580 c-3 -6 1 -7 9 -4 18 7 21 14 7 14 -6 0 -13 -4 -16 -10z"/>
<path d="M1950 1390 c6 -11 13 -20 16 -20 2 0 0 9 -6 20 -6 11 -13 20 -16 20
-2 0 0 -9 6 -20z"/>
<path d="M1498 1193 c7 -3 16 -2 19 1 4 3 -2 6 -13 5 -11 0 -14 -3 -6 -6z"/>
<path d="M1485 1170 c3 -5 1 -10 -6 -10 -27 0 2 -12 38 -16 l38 -4 -29 14
c-20 9 -25 15 -15 19 8 3 5 6 -9 6 -13 1 -20 -3 -17 -9z"/>
<path d="M1472 1108 c2 -18 8 -22 27 -20 15 2 21 0 17 -7 -4 -6 -15 -11 -24
-11 -9 0 -22 -11 -28 -24 -10 -21 -9 -25 8 -29 26 -7 48 2 48 20 0 8 -4 12 -8
9 -4 -2 -14 0 -22 6 -13 8 -13 9 1 5 9 -3 22 -1 29 3 11 7 11 14 0 39 -15 38
-53 44 -48 9z"/>
<path d="M1698 993 c6 -2 18 -2 25 0 6 3 1 5 -13 5 -14 0 -19 -2 -12 -5z"/>
<path d="M1670 870 c-11 -7 -11 -10 -2 -10 7 0 11 -4 8 -9 -8 -13 15 -28 52
-33 18 -3 29 -2 25 1 -4 4 -22 18 -38 33 -22 20 -34 25 -45 18z"/>
<path d="M1560 790 c0 -5 7 -10 16 -10 8 0 12 5 9 10 -3 6 -10 10 -16 10 -5 0
-9 -4 -9 -10z"/>
<path d="M2511 706 c-17 -10 -20 -15 -11 -21 9 -6 6 -11 -11 -21 -18 -10 -20
-13 -7 -14 9 0 20 5 23 10 11 17 24 11 20 -10 -5 -24 13 -37 21 -16 3 9 12 16
18 16 8 0 13 15 14 37 2 40 -15 35 -21 -7 -2 -13 -9 -26 -16 -28 -14 -5 -11
19 4 31 6 6 5 10 -4 14 -11 5 -11 7 0 14 22 14 -4 10 -30 -5z m19 -16 c0 -5
-4 -10 -10 -10 -5 0 -10 5 -10 10 0 6 5 10 10 10 6 0 10 -4 10 -10z"/>
<path d="M2595 670 c3 -5 8 -10 11 -10 2 0 4 5 4 10 0 6 -5 10 -11 10 -5 0 -7
-4 -4 -10z"/>
<path d="M2482 620 c-10 -17 -10 -21 3 -27 21 -8 37 9 29 30 -8 22 -16 21 -32
-3z"/>
<path d="M2470 550 c0 -6 7 -10 15 -10 8 0 15 2 15 4 0 2 -7 6 -15 10 -8 3
-15 1 -15 -4z"/>
<path d="M2510 550 c0 -5 5 -10 10 -10 6 0 10 5 10 10 0 6 -4 10 -10 10 -5 0
-10 -4 -10 -10z"/>
<path d="M1828 523 c7 -3 16 -2 19 1 4 3 -2 6 -13 5 -11 0 -14 -3 -6 -6z"/>
<path d="M2418 508 c9 -9 15 -9 24 0 9 9 7 12 -12 12 -19 0 -21 -3 -12 -12z"/>
<path d="M2732 490 c0 -14 2 -19 5 -12 2 6 2 18 0 25 -3 6 -5 1 -5 -13z"/>
<path d="M4418 1173 c7 -3 16 -2 19 1 4 3 -2 6 -13 5 -11 0 -14 -3 -6 -6z"/>
<path d="M2295 1330 c3 -5 11 -10 16 -10 6 0 7 5 4 10 -3 6 -11 10 -16 10 -6
0 -7 -4 -4 -10z"/>
<path d="M3278 1074 c-16 -8 -28 -21 -28 -29 0 -22 8 -19 42 15 32 33 28 37
-14 14z"/>
<path d="M3109 974 l-24 -26 32 19 c18 10 33 21 33 26 0 14 -17 7 -41 -19z"/>
<path d="M356 734 c-3 -8 -2 -13 3 -10 5 3 23 -10 40 -29 17 -20 31 -30 31
-22 0 7 -11 23 -25 35 -14 12 -25 26 -25 32 0 16 -17 12 -24 -6z"/>
<path d="M570 365 c0 -5 5 -17 10 -25 5 -8 10 -10 10 -5 0 6 -5 17 -10 25 -5
8 -10 11 -10 5z"/>
<path d="M1616 255 c-3 -8 -1 -15 4 -15 6 0 10 7 10 15 0 8 -2 15 -4 15 -2 0
-6 -7 -10 -15z"/>
<path d="M1560 2558 c0 -9 5 -20 11 -23 17 -11 18 -2 3 19 -12 17 -14 17 -14
4z"/>
<path d="M1384 1725 c-50 -27 -84 -53 -87 -65 -7 -26 5 -25 29 1 10 11 42 32
71 45 29 14 56 31 60 38 5 7 15 16 23 19 13 5 13 5 0 6 -8 0 -52 -20 -96 -44z"/>
<path d="M1460 1620 c29 -23 48 -26 31 -6 -6 8 -22 16 -34 20 -21 5 -21 4 3
-14z"/>
<path d="M4585 1570 c3 -5 8 -10 11 -10 2 0 4 5 4 10 0 6 -5 10 -11 10 -5 0
-7 -4 -4 -10z"/>
<path d="M964 1563 c-9 -3 -9 -13 -1 -39 11 -36 27 -29 27 13 0 24 -9 33 -26
26z"/>
<path d="M4698 1563 c7 -3 16 -2 19 1 4 3 -2 6 -13 5 -11 0 -14 -3 -6 -6z"/>
<path d="M4830 1510 c0 -45 6 -50 20 -17 8 18 9 15 7 -18 -1 -22 1 -39 6 -37
4 1 12 2 17 2 6 0 9 5 8 11 -5 19 63 37 94 25 21 -8 34 -7 48 2 12 7 20 8 20
2 0 -5 15 -10 34 -10 19 0 37 -4 40 -9 3 -4 29 -6 58 -4 l53 4 -48 -24 c-71
-35 -127 -107 -113 -144 3 -8 1 -11 -4 -8 -6 4 -10 -9 -10 -29 0 -20 -4 -36
-10 -36 -5 0 -10 5 -10 10 0 6 -9 10 -20 10 -25 0 -46 43 -24 48 8 2 12 8 9
13 -4 5 -1 9 4 9 6 0 11 4 11 9 0 18 -38 -1 -50 -25 -8 -13 -18 -24 -24 -24
-6 -1 0 -7 14 -15 24 -14 24 -14 -12 -8 -25 4 -38 2 -38 -6 0 -6 -10 -11 -23
-11 -13 0 -28 -5 -35 -12 -9 -9 -12 -9 -12 0 0 7 -4 12 -10 12 -5 0 -10 -13
-10 -30 0 -16 -4 -30 -9 -30 -5 0 -13 -9 -16 -20 -7 -23 -35 -27 -35 -6 0 16
-37 28 -46 15 -3 -5 0 -9 7 -9 7 0 9 -3 6 -6 -4 -4 -13 -1 -21 5 -22 18 -28
-2 -12 -40 7 -19 17 -43 21 -54 5 -11 7 -26 6 -32 -1 -7 3 -13 9 -13 6 0 8 -4
5 -10 -3 -5 -2 -10 4 -10 5 0 12 -14 16 -31 4 -17 16 -40 27 -51 11 -11 21
-29 24 -41 2 -12 8 -23 13 -25 5 -2 7 -12 4 -22 -4 -14 0 -20 11 -20 9 0 25
-9 36 -20 22 -22 35 -27 24 -9 -4 7 -2 10 5 8 7 -3 11 -8 9 -13 -2 -5 7 -12
20 -17 13 -5 22 -17 23 -31 2 -29 2 -29 -6 -58 -3 -15 0 -33 9 -45 16 -23 28
-16 30 17 1 13 7 23 16 23 9 0 14 8 12 18 -2 9 2 17 8 17 6 0 8 5 5 10 -3 6 0
10 8 10 15 0 52 -94 43 -109 -3 -4 1 -17 8 -27 12 -16 14 -9 11 56 -3 62 -1
70 7 45 30 -86 37 -98 53 -85 13 10 15 9 15 -8 0 -12 -9 -26 -20 -32 -11 -6
-20 -18 -20 -26 0 -20 -31 -116 -36 -111 -2 2 0 28 6 57 14 75 13 82 -7 72
-10 -5 -36 -10 -58 -11 -34 -1 -47 5 -85 39 -25 22 -48 40 -52 40 -3 0 -14 20
-24 44 -11 26 -31 51 -48 62 l-29 17 8 -34 c4 -19 9 -58 10 -87 2 -29 10 -63
18 -76 10 -15 12 -28 6 -37 -8 -12 -10 -12 -18 1 -6 8 -13 12 -16 8 -3 -3 1
-13 10 -21 19 -20 19 -43 0 -51 -8 -3 -15 -1 -15 4 0 23 -36 8 -48 -20 -6 -16
-18 -43 -24 -60 -7 -16 -19 -30 -27 -30 -20 0 -2 -17 24 -23 13 -3 9 -5 -12
-6 -18 -1 -36 -8 -41 -17 -7 -13 -19 -16 -53 -11 -28 4 -38 2 -28 -4 7 -5 28
-9 44 -10 17 0 38 -4 48 -8 17 -6 17 -8 -4 -34 -12 -16 -28 -26 -35 -23 -8 3
-14 -1 -14 -9 0 -8 13 -15 33 -18 23 -3 19 -4 -18 -6 -27 0 -68 -4 -90 -8
l-40 -7 35 -7 35 -6 -37 -2 c-21 0 -38 4 -38 9 0 6 -9 10 -21 10 -11 0 -17 -4
-14 -10 3 -5 1 -10 -4 -10 -6 0 -11 5 -11 11 0 5 -4 8 -9 5 -14 -9 -19 16 -18
83 1 33 -1 61 -4 61 -4 0 -3 17 2 38 12 53 11 72 -5 72 -9 0 -16 -13 -19 -32
-3 -29 -4 -27 -5 10 l-2 42 -49 0 c-62 0 -81 7 -81 31 0 10 -4 19 -9 19 -6 0
-8 -9 -6 -20 5 -26 -11 -35 -24 -13 -6 10 -11 12 -11 6 0 -17 -27 -17 -33 0
-4 9 -8 9 -14 1 -7 -11 -106 -23 -195 -24 -38 0 -38 0 -39 -42 l-1 -43 -10 42
-9 43 -109 0 c-89 0 -109 -3 -114 -16 -3 -8 -10 -12 -16 -9 -6 4 -8 11 -5 16
4 5 -35 9 -95 9 -65 0 -99 -4 -95 -10 3 -5 1 -10 -4 -10 -6 0 -11 5 -11 10 0
15 -17 12 -17 -2 -1 -7 -2 -32 -4 -54 -2 -36 -5 -41 -23 -37 -13 2 -9 -2 9
-10 28 -14 29 -15 10 -23 -11 -5 -21 -15 -23 -21 -3 -17 15 -17 21 0 3 6 6 -6
6 -27 1 -37 0 -38 -17 -23 -25 22 -39 22 -19 0 15 -17 17 -22 17 -40 0 -5 5
-1 10 7 9 13 10 13 11 0 0 -8 2 -31 3 -50 1 -19 -1 -46 -5 -60 -5 -18 -8 -11
-8 28 -1 51 -10 62 -37 44 -16 -11 -25 -42 -12 -42 6 0 9 -3 5 -6 -3 -3 -2
-17 3 -30 11 -29 -2 -39 -30 -24 -28 15 -25 -4 4 -24 22 -14 141 -16 1210 -16
l1186 0 0 441 0 441 -27 -5 -28 -6 28 12 c16 6 27 19 27 30 0 14 -4 17 -17 12
-10 -4 -29 -10 -43 -12 -17 -3 -11 2 18 17 33 17 42 28 42 48 l0 25 -25 -23
c-32 -30 -32 -21 0 16 33 38 32 59 -5 74 -16 7 -30 16 -30 20 0 4 14 24 30 45
29 37 40 62 21 51 -5 -4 -12 0 -14 6 -4 10 -8 9 -16 -2 -6 -8 -11 -10 -11 -4
0 5 -7 19 -16 30 -12 15 -14 15 -11 2 7 -21 -23 -29 -63 -18 -34 10 -60 32
-60 52 0 10 3 9 11 -2 9 -12 10 -12 5 3 -3 11 2 32 11 48 13 21 14 32 6 40 -8
8 -19 -5 -40 -51 l-28 -62 -65 6 c-36 3 -86 6 -112 6 -42 0 -48 3 -48 21 0 11
-5 17 -10 14 -6 -4 -8 -10 -5 -15 8 -12 -6 -41 -16 -34 -5 3 -50 5 -101 5 -50
0 -95 2 -99 5 -5 3 -2 16 7 30 9 13 13 24 10 24 -11 0 28 54 53 75 24 19 51
29 51 18 0 -3 -10 -13 -22 -24 -18 -14 -20 -18 -7 -19 9 0 22 7 29 15 7 8 18
15 24 15 6 0 5 -4 -3 -9 -7 -5 -12 -13 -10 -19 8 -21 41 16 40 45 0 15 0 38
-1 50 0 26 -38 38 -230 77 -210 41 -190 42 -190 -4z m-40 -391 c19 -1 27 -3
17 -6 -13 -3 -17 -11 -14 -24 8 -29 -16 -23 -54 13 -32 29 -33 31 -9 25 14 -4
41 -7 60 -8z m4 -71 c-3 -4 2 -8 10 -8 9 0 16 -5 16 -11 0 -5 -4 -8 -9 -5 -5
3 -11 -1 -15 -9 -4 -11 1 -15 17 -15 19 0 23 -5 23 -34 0 -19 -4 -32 -8 -30
-4 3 -8 11 -8 17 0 7 -9 18 -21 25 -14 9 -18 19 -14 32 4 11 2 20 -3 20 -6 0
-12 6 -15 14 -4 10 0 14 13 13 10 -1 16 -5 14 -9z m940 0 c-5 -8 -2 -9 10 -5
10 4 15 3 11 -3 -3 -6 -21 -10 -38 -10 l-32 1 25 14 c31 18 33 18 24 3z m-34
-80 c0 -6 -7 -7 -16 -4 -9 3 -21 6 -27 6 -7 0 -7 4 2 9 16 10 41 4 41 -11z
m-63 -74 c-3 -3 -12 -4 -19 -1 -8 3 -5 6 6 6 11 1 17 -2 13 -5z m-487 -212 c0
-21 5 -43 12 -50 9 -9 8 -12 -4 -12 -21 0 -26 8 -34 58 -5 35 -4 42 10 42 12
0 16 -10 16 -38z m310 -3 c-14 -26 -18 -24 -12 6 2 14 8 22 13 19 5 -3 5 -14
-1 -25z m-119 -2 c-1 -12 -15 -9 -19 4 -3 6 1 10 8 8 6 -3 11 -8 11 -12z m189
-343 c0 -24 -17 -15 -22 11 -4 20 -3 23 8 14 8 -6 14 -18 14 -25z m-1830 -44
c0 -5 -2 -10 -4 -10 -3 0 -8 5 -11 10 -3 6 -1 10 4 10 6 0 11 -4 11 -10z m240
0 c0 -5 -5 -10 -11 -10 -5 0 -7 5 -4 10 3 6 8 10 11 10 2 0 4 -4 4 -10z m1605
-10 c3 -5 1 -10 -4 -10 -6 0 -11 5 -11 10 0 6 2 10 4 10 3 0 8 -4 11 -10z
m-757 -106 c-4 -3 2 -14 12 -24 15 -15 25 -17 55 -10 20 5 39 11 42 14 3 3 15
0 27 -6 20 -11 20 -11 1 -19 -18 -7 -17 -8 5 -9 20 0 22 -2 9 -10 -8 -5 -24
-7 -35 -5 -10 2 -40 4 -66 4 -27 1 -47 4 -46 9 1 4 -3 17 -10 28 -10 19 -7 34
6 34 3 0 3 -3 0 -6z m-368 -8 c0 -3 -4 -8 -10 -11 -5 -3 -10 -1 -10 4 0 6 5
11 10 11 6 0 10 -2 10 -4z m543 -3 c-7 -2 -21 -2 -30 0 -10 3 -4 5 12 5 17 0
24 -2 18 -5z m53 -5 c-11 19 5 14 20 -5 9 -14 10 -21 1 -32 -10 -12 -9 -13 2
-6 9 5 12 4 7 -3 -3 -6 -20 -10 -36 -10 -22 1 -30 6 -30 19 0 10 5 21 10 24 6
4 7 12 3 18 -4 7 2 5 12 -3 11 -9 16 -10 11 -2z m-242 -26 c3 -5 0 -9 -7 -10
-69 -11 -297 -16 -306 -7 -2 3 25 5 60 6 35 0 72 4 83 8 27 10 164 13 170 3z
m-239 -52 c3 -5 1 -10 -4 -10 -6 0 -11 5 -11 10 0 6 2 10 4 10 3 0 8 -4 11
-10z m-1090 -50 c3 -5 2 -10 -4 -10 -5 0 -13 5 -16 10 -3 6 -2 10 4 10 5 0 13
-4 16 -10z"/>
<path d="M1006 1495 c4 -8 11 -15 16 -15 6 0 5 6 -2 15 -7 8 -14 15 -16 15 -2
0 -1 -7 2 -15z"/>
<path d="M925 1490 c3 -5 8 -10 11 -10 2 0 4 5 4 10 0 6 -5 10 -11 10 -5 0 -7
-4 -4 -10z"/>
<path d="M4830 1414 c0 -8 5 -12 10 -9 6 3 10 10 10 16 0 5 -4 9 -10 9 -5 0
-10 -7 -10 -16z"/>
<path d="M5325 1419 c-10 -15 1 -23 20 -15 9 3 13 10 10 16 -8 13 -22 13 -30
-1z"/>
<path d="M846 1387 c3 -10 9 -15 12 -12 3 3 0 11 -7 18 -10 9 -11 8 -5 -6z"/>
<path d="M5436 1388 c3 -4 11 -5 19 -1 21 7 19 12 -4 10 -11 0 -18 -5 -15 -9z"/>
<path d="M365 1380 c-13 -6 -15 -9 -5 -9 8 0 22 4 30 9 18 12 2 12 -25 0z"/>
<path d="M5483 1357 c4 -10 7 -23 7 -28 0 -5 5 -9 10 -9 16 0 12 26 -7 41 -15
12 -16 12 -10 -4z"/>
<path d="M5367 1309 c-4 -16 -3 -18 9 -8 16 13 19 29 5 29 -5 0 -11 -9 -14
-21z"/>
<path d="M5301 1304 c0 -11 3 -14 6 -6 3 7 2 16 -1 19 -3 4 -6 -2 -5 -13z"/>
<path d="M5255 1250 c-3 -5 -1 -10 4 -10 6 0 11 5 11 10 0 6 -2 10 -4 10 -3 0
-8 -4 -11 -10z"/>
<path d="M520 1224 c0 -8 5 -12 10 -9 6 4 8 11 5 16 -9 14 -15 11 -15 -7z"/>
<path d="M557 1234 c-3 -3 -3 -13 0 -22 4 -10 2 -13 -5 -8 -17 10 -15 -9 3
-24 13 -11 15 -7 15 24 0 36 -2 41 -13 30z"/>
<path d="M4663 1206 c4 -10 7 -22 7 -27 0 -5 8 -9 18 -8 10 0 12 3 5 6 -7 2
-13 11 -13 18 0 8 -5 17 -12 21 -8 5 -9 2 -5 -10z"/>
<path d="M4775 1200 c3 -5 10 -10 16 -10 5 0 9 5 9 10 0 6 -7 10 -16 10 -8 0
-12 -4 -9 -10z"/>
<path d="M4750 1175 c7 -8 16 -15 21 -15 5 0 9 7 9 15 0 9 -9 15 -21 15 -18 0
-19 -2 -9 -15z"/>
<path d="M261 1171 c-8 -6 -9 -11 -3 -15 6 -3 14 -1 17 5 9 14 2 20 -14 10z"/>
<path d="M332 1071 c-10 -6 -10 -10 3 -21 12 -10 19 -10 27 -2 9 9 8 12 -2 12
-13 0 -13 2 0 10 13 9 13 10 0 10 -8 0 -21 -4 -28 -9z"/>
<path d="M527 1054 c6 -15 23 -19 23 -5 0 5 -7 11 -14 14 -10 4 -13 1 -9 -9z"/>
<path d="M538 1023 c7 -3 16 -2 19 1 4 3 -2 6 -13 5 -11 0 -14 -3 -6 -6z"/>
<path d="M310 1003 c0 -5 5 -15 10 -23 7 -12 9 -10 7 8 -1 19 -17 33 -17 15z"/>
<path d="M543 1004 c-9 -4 -9 -11 -1 -30 8 -18 14 -21 24 -13 10 8 11 5 8 -13
-5 -20 -4 -21 6 -6 8 14 7 23 -6 43 -9 14 -17 25 -18 24 0 0 -6 -3 -13 -5z"/>
<path d="M487 939 c7 -7 15 -10 18 -7 3 3 -2 9 -12 12 -14 6 -15 5 -6 -5z"/>
<path d="M106 761 c-16 -18 -15 -18 18 -7 22 7 30 13 23 18 -17 11 -22 10 -41
-11z"/>
<path d="M0 714 c0 -14 4 -23 10 -19 5 3 10 1 10 -5 0 -17 17 -3 23 19 3 14 1
18 -9 14 -8 -3 -14 0 -14 6 0 6 -4 11 -10 11 -5 0 -10 -12 -10 -26z"/>
<path d="M3510 720 c0 -5 5 -10 11 -10 5 0 7 5 4 10 -3 6 -8 10 -11 10 -2 0
-4 -4 -4 -10z"/>
<path d="M4335 710 c3 -5 10 -10 16 -10 5 0 9 5 9 10 0 6 -7 10 -16 10 -8 0
-12 -4 -9 -10z"/>
<path d="M51 680 c-6 -18 -6 -28 -1 -25 6 4 10 1 10 -4 0 -6 5 -11 11 -11 6 0
8 7 5 16 -5 14 -4 15 8 5 8 -7 23 -11 33 -8 17 4 16 5 -2 12 -11 5 -27 17 -36
27 -16 18 -17 17 -28 -12z"/>
<path d="M3992 694 c-7 -8 -12 -20 -9 -27 2 -7 9 -2 16 11 15 28 11 36 -7 16z"/>
<path d="M4360 676 c0 -2 7 -9 15 -16 13 -11 14 -10 9 4 -5 14 -24 23 -24 12z"/>
<path d="M4760 649 c0 -5 5 -7 10 -4 6 3 10 8 10 11 0 2 -4 4 -10 4 -5 0 -10
-5 -10 -11z"/>
<path d="M5030 631 c0 -5 5 -13 10 -16 6 -3 10 -2 10 4 0 5 -4 13 -10 16 -5 3
-10 2 -10 -4z"/>
<path d="M4764 575 c0 -25 3 -45 8 -45 4 0 8 20 8 45 0 59 -15 59 -16 0z"/>
<path d="M40 600 c0 -5 5 -10 10 -10 6 0 10 5 10 10 0 6 -4 10 -10 10 -5 0
-10 -4 -10 -10z"/>
<path d="M4255 500 c3 -5 8 -10 11 -10 2 0 4 5 4 10 0 6 -5 10 -11 10 -5 0 -7
-4 -4 -10z"/>
<path d="M4764 494 c3 -9 6 -18 6 -20 0 -3 4 -3 10 1 11 7 2 35 -12 35 -6 0
-7 -7 -4 -16z"/>
<path d="M4640 480 c0 -5 5 -10 11 -10 5 0 7 5 4 10 -3 6 -8 10 -11 10 -2 0
-4 -4 -4 -10z"/>
<path d="M4618 443 c6 -2 9 -10 5 -16 -13 -20 -9 -62 7 -69 9 -4 1 -7 -20 -8
-27 -1 -31 -3 -15 -9 19 -8 19 -8 0 -19 -18 -10 -16 -11 14 -12 25 0 32 3 27
15 -3 8 0 14 7 12 19 -3 21 45 2 59 -10 7 -12 15 -6 18 15 10 2 36 -18 35 -10
0 -11 -2 -3 -6z"/>
<path d="M4418 413 c7 -3 16 -2 19 1 4 3 -2 6 -13 5 -11 0 -14 -3 -6 -6z"/>
<path d="M4480 315 c0 -9 6 -12 15 -9 8 4 15 10 15 15 0 5 -7 9 -15 9 -8 0
-15 -7 -15 -15z"/>
<path d="M3336 282 c-22 -3 -26 -6 -15 -13 11 -7 11 -9 -3 -9 -14 0 -16 -7
-11 -37 7 -45 25 -68 48 -59 11 4 14 12 10 26 -4 13 -2 20 7 20 10 0 10 2 -1
9 -11 7 -9 10 8 16 12 3 19 11 15 16 -3 6 -12 8 -20 5 -8 -3 -14 -1 -14 3 0 5
5 11 12 13 20 7 -5 14 -36 10z m4 -81 c0 -6 -4 -13 -10 -16 -5 -3 -10 1 -10 9
0 9 5 16 10 16 6 0 10 -4 10 -9z"/>
<path d="M2810 231 c0 -11 31 -24 39 -16 3 3 -1 10 -9 15 -19 12 -30 12 -30 1z"/>
<path d="M3145 230 c3 -5 8 -10 11 -10 2 0 4 5 4 10 0 6 -5 10 -11 10 -5 0 -7
-4 -4 -10z"/>
<path d="M3281 224 c0 -11 3 -14 6 -6 3 7 2 16 -1 19 -3 4 -6 -2 -5 -13z"/>
<path d="M4516 233 c-8 -9 6 -33 19 -33 21 0 25 28 5 33 -10 3 -21 3 -24 0z"/>
<path d="M4625 231 c-3 -5 -1 -12 4 -15 5 -3 11 1 15 9 6 16 -9 21 -19 6z"/>
<path d="M4462 204 c13 -27 38 -32 38 -8 0 8 -4 12 -10 9 -5 -3 -10 -2 -10 4
0 5 6 11 13 14 6 2 0 4 -15 4 -24 0 -26 -1 -16 -23z"/>
<path d="M4543 193 c-13 -2 -23 -8 -23 -12 0 -5 11 -6 25 -3 14 2 25 8 25 13
0 5 -1 8 -2 8 -2 -1 -13 -4 -25 -6z"/>
<path d="M3326 135 c4 -8 10 -12 15 -9 14 8 10 24 -6 24 -9 0 -12 -6 -9 -15z"/>
<path d="M3365 139 c-4 -6 -5 -12 -2 -15 2 -3 7 2 10 11 7 17 1 20 -8 4z"/>
<path d="M2957 43 c-10 -9 -9 -33 1 -33 4 0 8 9 9 20 2 21 0 24 -10 13z"/>
<path d="M441 14 c0 -11 3 -14 6 -6 3 7 2 16 -1 19 -3 4 -6 -2 -5 -13z"/>
<path d="M395 10 c4 -6 11 -8 16 -5 14 9 11 15 -7 15 -8 0 -12 -5 -9 -10z"/>
<path d="M2980 10 c0 -5 12 -10 28 -9 24 0 25 1 7 9 -27 12 -35 12 -35 0z"/>
<path d="M238 3 c7 -3 16 -2 19 1 4 3 -2 6 -13 5 -11 0 -14 -3 -6 -6z"/>
<path d="M288 3 c12 -2 32 -2 45 0 12 2 2 4 -23 4 -25 0 -35 -2 -22 -4z"/>
</g>
</svg>
